<!--?xml version="1.0" standalone="no"?-->
              <svg id="sw-js-blob-svg" viewBox="0 0 100 100" xmlns="http://www.w3.org/2000/svg" version="1.1">
                    <defs> 
                        <linearGradient id="sw-gradient" x1="0" x2="1" y1="1" y2="0">
                            <stop id="stop1" stop-color="rgba(244.897, 244.897, 244.897, 1)" offset="0%"></stop>
                            <stop id="stop2" stop-color="rgba(226.654, 226.654, 226.654, 1)" offset="100%"></stop>
                        </linearGradient>
                    </defs>
                <path fill="url(#sw-gradient)" d="M20.3,-35.5C26.2,-31.8,30.8,-26.1,34.5,-19.8C38.2,-13.6,41.2,-6.8,41.9,0.4C42.6,7.6,41.2,15.3,37.1,21.1C33.1,26.9,26.6,30.8,20,33.4C13.4,36,6.7,37.1,-0.1,37.3C-6.8,37.4,-13.7,36.5,-20.8,34.2C-27.9,31.9,-35.3,28.3,-38.8,22.4C-42.3,16.4,-41.9,8.2,-41.4,0.3C-40.8,-7.6,-40,-15.1,-36.4,-20.8C-32.8,-26.6,-26.3,-30.4,-19.8,-33.7C-13.2,-37,-6.6,-39.6,0.3,-40.2C7.2,-40.7,14.4,-39.1,20.3,-35.5Z" width="100%" height="100%" transform="translate(50 50)" stroke-width="0" style="transition: all 0.3s ease 0s;" stroke="url(#sw-gradient)"></path>
              </svg>